{
  "title": "Relatos Salvajes 2014 WEB-DL 1080p x264 AC3 Castellano Y Latino ",
  "uid": 11708402,
  "size": 3938582360,
  "categoryP": "video",
  "categoryS": "movies",
  "magnet": "?xt=urn:btih:6ea0a93facaff1b99ef7542a47e01b1d9f0921c1&amp;dn=Relatos+Salvajes+2014+WEB-DL+1080p+x264+AC3+Castellano+Y+Latino+&amp;tr=udp%3A%2F%2Ftracker.openbittorrent.com%3A80&amp;tr=udp%3A%2F%2Fopen.demonii.com%3A1337&amp;tr=udp%3A%2F%2Ftracker.coppersurfer.tk%3A6969&amp;tr=udp%3A%2F%2Fexodus.desync.com%3A6969",
  "seeders": 506,
  "leechers": 36,
  "uploader": "noriegaRJ",
  "files": 5,
  "time": 1424231721,
  "description": "Title: Relatos Salvajes aka Wild Tales\n\n\nIMDB Link:                                    &lt;a href=&quot;\nhttp://www.imdb.com/title/tt3011894/&quot; rel=&quot;nofollow&quot; target=&quot;_NEW&quot;&gt;\nhttp://www.imdb.com/title/tt3011894/&lt;/a&gt;\n\n\nPlot: A story about love deception, the return of the past, a tragedy, or even the violence contained in an everyday detail, appear themselves to push them towards the abyss, into the undeniable pleasure of losing control.\n\n\n\nGeneral\nComplete name                            : Relatos Salvajes 2014 WEB-DL 1080p x264 AC3 Castellano Y Latino URBiN4HD\nFormat                                   : Matroska\nFormat version                           : Version 4 / Version 2\nFile size                                : 3.67 GiB\nDuration                                 : 2h 1mn\nOverall bit rate                         : 4 304 Kbps\nEncoded date                             : UTC 2015-02-17 15:43:28\nWriting application                      : mkvmerge v7.6.0 ('Garden of Dreams') 64bit built on Feb  8 2015 13:04:34\nWriting library                          : libebml v1.3.1 + libmatroska v1.4.2\nAttachment                               : Yes\n\nVideo\nID                                       : 1\nFormat                                   : AVC\nFormat/Info                              : Advanced Video Codec\nFormat profile                           : &lt;a class=&quot;__cf_email__&quot; href=&quot;/cdn-cgi/l/email-protection&quot; data-cfemail=&quot;276f4e404f676b130917&quot;&gt;[email&amp;#160;protected]&lt;/a&gt;&lt;script cf-hash='f9e31' type=&quot;text/javascript&quot;&gt;\n/* &lt;![CDATA[ */!function(){try{var t=&quot;currentScript&quot;in document?document.currentScript:function(){for(var t=document.getElementsByTagName(&quot;script&quot;),e=t.length;e--;)if(t[e].getAttribute(&quot;cf-hash&quot;))return t[e]}();if(t&amp;&amp;t.previousSibling){var e,r,n,i,c=t.previousSibling,a=c.getAttribute(&quot;data-cfemail&quot;);if(a){for(e=&quot;&quot;,r=parseInt(a.substr(0,2),16),n=2;a.length-n;n+=2)i=parseInt(a.substr(n,2),16)^r,e+=String.fromCharCode(i);e=document.createTextNode(e),c.parentNode.replaceChild(e,c)}}}catch(u){}}();/* ]]&gt; */&lt;/script&gt;\nFormat settings, CABAC                   : Yes\nFormat settings, ReFrames                : 5 frames\nCodec ID                                 : V_MPEG4/ISO/AVC\nDuration                                 : 2h 1mn\nBit rate                                 : 3 835 Kbps\nWidth                                    : 1 912 pixels\nHeight                                   : 800 pixels\nDisplay aspect ratio                     : 2.40:1\nFrame rate mode                          : Constant\nFrame rate                               : 23.976 fps\nColor space                              : YUV\nChroma subsampling                       : 4:2:0\nBit depth                                : 8 bits\nScan type                                : Progressive\nBits/(Pixel*Frame)                       : 0.105\nStream size                              : 3.27 GiB (89%)\nDefault                                  : Yes\nForced                                   : No\nColor primaries                          : BT.709\nTransfer characteristics                 : BT.709\nMatrix coefficients                      : BT.709\n\nAudio\nID                                       : 2\nFormat                                   : AC-3\nFormat/Info                              : Audio Coding 3\nMode extension                           : CM (complete main)\nFormat settings, Endianness              : Big\nCodec ID                                 : A_AC3\nDuration                                 : 2h 1mn\nBit rate mode                            : Constant\nBit rate                                 : 384 Kbps\nChannel count                            : 6 channels\nChannel positions                        : Front: L C R, Side: L R, LFE\nSampling rate                            : 48.0 KHz\nBit depth                                : 16 bits\nCompression mode                         : Lossy\nStream size                              : 335 MiB (9%)\nLanguage                                 : Spanish\nDefault                                  : Yes\nForced                                   : No\n\n\n\nThanks to those helping me seed. Leechers remember, the community depends on you. If nobody shares, the freebies go away. Remember, the only reason you can download this free movie is because others are generous enough to keep sharing it with you. If nobody shares, everybody loses, so even if its for an extra hour or two after you get it, remember, others want to see it too, and they can't without you.\n\n\nSEE MY OTHERS UPLOADS:                                                            &lt;a href=&quot;\nhttp://thepiratebay.se/user/noriegaRJ&quot; rel=&quot;nofollow&quot; target=&quot;_NEW&quot;&gt;\nhttp://thepiratebay.se/user/noriegaRJ&lt;/a&gt;\n\nAND SEE THIS ANOTHERS UPLOADS FROM &quot;HORiZON-ArtSubs&quot;:            &lt;a href=&quot;\nhttp://thepiratebay.se/user/artsubs&quot; rel=&quot;nofollow&quot; target=&quot;_NEW&quot;&gt;\nhttp://thepiratebay.se/user/artsubs&lt;/a&gt;            &lt;a href=&quot;\nhttp://thepiratebay.se/user/lletaif&quot; rel=&quot;nofollow&quot; target=&quot;_NEW&quot;&gt;\nhttp://thepiratebay.se/user/lletaif&lt;/a&gt;",
  "parsed": {
    "xt": "urn:btih:6ea0a93facaff1b99ef7542a47e01b1d9f0921c1",
    "dn": "Relatos Salvajes 2014 WEB-DL 1080p x264 AC3 Castellano Y Latino ",
    "tr": [
      "udp://exodus.desync.com:6969",
      "udp://open.demonii.com:1337",
      "udp://tracker.coppersurfer.tk:6969",
      "udp://tracker.openbittorrent.com:80"
    ],
    "infoHash": "6ea0a93facaff1b99ef7542a47e01b1d9f0921c1",
    "infoHashBuffer": {
      "type": "Buffer",
      "data": [
        110,
        160,
        169,
        63,
        172,
        175,
        241,
        185,
        158,
        247,
        84,
        42,
        71,
        224,
        27,
        29,
        159,
        9,
        33,
        193
      ]
    },
    "name": "Relatos Salvajes 2014 WEB-DL 1080p x264 AC3 Castellano Y Latino ",
    "announce": [
      "udp://exodus.desync.com:6969",
      "udp://open.demonii.com:1337",
      "udp://tracker.coppersurfer.tk:6969",
      "udp://tracker.openbittorrent.com:80"
    ],
    "urlList": []
  },
  "previous": 542,
  "peers": 50,
  "last_updated": "2016-12-25T04:11:48.340Z"
}